<svg xmlns="http://www.w3.org/2000/svg" xmlns:xlink="http://www.w3.org/1999/xlink" width="61.486" height="43.766" viewBox="0 0 61.486 43.766">
  <defs>
    <clipPath id="clip-path">
      <rect width="61.486" height="43.766" fill="none"/>
    </clipPath>
  </defs>
  <g id="food" clip-path="url(#clip-path)">
    <path id="Path_20448" data-name="Path 20448" d="M1.042,17.517A1.042,1.042,0,0,1,0,16.474V10.222a1.042,1.042,0,0,1,2.084,0v6.253a1.042,1.042,0,0,1-1.042,1.042Zm0,0" transform="translate(0 -8.137)" fill="#e4e4e2"/>
    <path id="Path_20449" data-name="Path 20449" d="M35.753,17.517a1.042,1.042,0,0,1-1.042-1.042V10.222a1.042,1.042,0,0,1,2.084,0v6.253A1.042,1.042,0,0,1,35.753,17.517Zm0,0" transform="translate(-30.543 -8.137)" fill="#e4e4e2"/>
    <path id="Path_20450" data-name="Path 20450" d="M70.468,17.517a1.042,1.042,0,0,1-1.042-1.042V10.222a1.042,1.042,0,0,1,2.084,0v6.253A1.042,1.042,0,0,1,70.468,17.517Zm0,0" transform="translate(-61.088 -8.137)" fill="#e4e4e2"/>
    <path id="Path_20451" data-name="Path 20451" d="M135.058,54.976a19.8,19.8,0,1,1-19.8-19.8A19.8,19.8,0,0,1,135.058,54.976Zm0,0" transform="translate(-83.994 -31.012)" fill="#e4e4e2"/>
    <path id="Path_20452" data-name="Path 20452" d="M161.432,85.522A15.632,15.632,0,1,1,145.8,69.891,15.632,15.632,0,0,1,161.432,85.522Zm0,0" transform="translate(-114.536 -61.558)" fill="#ea9d2d"/>
    <path id="Path_20453" data-name="Path 20453" d="M247.59,220.584l2.782,1.436a3.126,3.126,0,0,0,4.213-1.34,2.085,2.085,0,0,0,2.811-.888l0-.006.479-.926a2.084,2.084,0,0,0,2.811-.888l0-.006a2.085,2.085,0,0,0-.894-2.809l-1.851-.958-3.72-1.914Zm0,0" transform="translate(-217.857 -186.852)" fill="#6b9777"/>
    <path id="Path_20454" data-name="Path 20454" d="M5.211,69.583A5.217,5.217,0,0,1,0,64.373V62.288a1.042,1.042,0,0,1,1.042-1.042H9.379a1.042,1.042,0,0,1,1.042,1.042v2.085A5.217,5.217,0,0,1,5.211,69.583Zm0,0" transform="translate(0 -53.951)" fill="#e4e4e2"/>
    <path id="Path_20455" data-name="Path 20455" d="M28.119,141.45a2.084,2.084,0,0,1-2.084-2.084V113.313H30.2v26.053A2.084,2.084,0,0,1,28.119,141.45Zm0,0" transform="translate(-22.909 -99.765)" fill="#e4e4e2"/>
    <path id="Path_20456" data-name="Path 20456" d="M192.525,95.114c2.434-4.7.061-10.764-5.3-13.535-4.758-2.46-10.263-1.5-13.142,2.042a15.761,15.761,0,0,0-3.828,7.169c-1.643,6.735,1.055,13.093,6.027,14.205,3.617.807,7.435-1.4,9.883-5.249A9.066,9.066,0,0,0,192.525,95.114Zm0,0" transform="translate(-149.387 -70.639)" fill="#985713"/>
    <path id="Path_20457" data-name="Path 20457" d="M158.907,109.842a2.084,2.084,0,1,1-2.084-2.085A2.084,2.084,0,0,1,158.907,109.842Zm0,0" transform="translate(-136.156 -94.877)" fill="#c7463b"/>
    <path id="Path_20458" data-name="Path 20458" d="M142.954,140.678a2.084,2.084,0,1,1-2.085-2.084A2.085,2.085,0,0,1,142.954,140.678Zm0,0" transform="translate(-122.118 -122.01)" fill="#f55648"/>
    <path id="Path_20459" data-name="Path 20459" d="M134.719,175.494a2.084,2.084,0,1,1-2.084-2.084A2.084,2.084,0,0,1,134.719,175.494Zm0,0" transform="translate(-114.873 -152.645)" fill="#6b9777"/>
    <g id="Group_1006" data-name="Group 1006" transform="translate(23.646 12.229)">
      <path id="Path_20460" data-name="Path 20460" d="M268.963,104.305l5.556,2.872a1.043,1.043,0,0,0,.958-1.852l-5.555-2.872a1.043,1.043,0,1,0-.958,1.852Zm0,0" transform="translate(-259.814 -102.336)" fill="#834b10"/>
      <path id="Path_20461" data-name="Path 20461" d="M241.951,127.064l-11.108-5.746a1.043,1.043,0,0,0-.957,1.853l11.108,5.746a1.043,1.043,0,1,0,.958-1.853Zm0,0" transform="translate(-225.428 -118.937)" fill="#834b10"/>
      <path id="Path_20462" data-name="Path 20462" d="M226.009,157.9,214.9,152.16a1.043,1.043,0,0,0-.957,1.853l11.108,5.743a1.043,1.043,0,0,0,.958-1.852Zm0,0" transform="translate(-211.401 -146.074)" fill="#834b10"/>
      <path id="Path_20463" data-name="Path 20463" d="M207.248,187.3l-8.337-4.308a1.043,1.043,0,0,0-.958,1.852l8.332,4.308a1.042,1.042,0,0,0,.957-1.852Zm0,0" transform="translate(-197.331 -173.204)" fill="#834b10"/>
      <path id="Path_20464" data-name="Path 20464" d="M203.054,224.2l-4.629-2.4a1.043,1.043,0,1,0-.958,1.852l4.629,2.4a1.043,1.043,0,1,0,.958-1.853Zm0,0" transform="translate(-196.903 -207.352)" fill="#834b10"/>
    </g>
    <path id="Path_20465" data-name="Path 20465" d="M455.422,43.228A3.126,3.126,0,0,1,452.3,40.1V29.921a9.86,9.86,0,0,1,1.042-4.41V22.385l-2.084-3.127V6.753A6.253,6.253,0,0,1,457.507.5V25.511a9.865,9.865,0,0,1,1.042,4.415V40.1A3.127,3.127,0,0,1,455.422,43.228Zm0,0" transform="translate(-397.063 -0.5)" fill="#e4e4e2"/>
    <path id="Path_20466" data-name="Path 20466" d="M463.06,226.486a3.126,3.126,0,0,1-3.126-3.127V213.18a9.86,9.86,0,0,1,1.042-4.41h4.168a9.865,9.865,0,0,1,1.042,4.415v10.175A3.127,3.127,0,0,1,463.06,226.486Zm0,0" transform="translate(-404.7 -183.759)" fill="#a88e74"/>
    <path id="Path_20467" data-name="Path 20467" d="M26.035,208.77H30.2v14.59a2.084,2.084,0,1,1-4.168,0Zm0,0" transform="translate(-22.909 -183.759)" fill="#a88e74"/>
  </g>
</svg>
